<svg width="18" height="18" viewBox="0 0 18 18" fill="none" xmlns="http://www.w3.org/2000/svg">
<path d="M11.8125 11.25C13.0551 11.25 14.0625 10.2426 14.0625 9C14.0625 7.75736 13.0551 6.75 11.8125 6.75C10.5699 6.75 9.5625 7.75736 9.5625 9C9.5625 10.2426 10.5699 11.25 11.8125 11.25Z" stroke="black" stroke-width="1.5" stroke-linecap="round" stroke-linejoin="round"/>
<path d="M9.5625 6.75H11.8125C12.4092 6.75 12.9815 6.51295 13.4035 6.09099C13.8254 5.66903 14.0625 5.09674 14.0625 4.5C14.0625 3.90326 13.8254 3.33097 13.4035 2.90901C12.9815 2.48705 12.4092 2.25 11.8125 2.25H9.5625M9.5625 6.75H6.75M9.5625 6.75V2.25M9.5625 6.75V11.25M9.5625 2.25H6.75C6.15326 2.25 5.58097 2.48705 5.15901 2.90901C4.73705 3.33097 4.5 3.90326 4.5 4.5C4.5 5.09674 4.73705 5.66903 5.15901 6.09099C5.58097 6.51295 6.15326 6.75 6.75 6.75M6.75 6.75C6.15326 6.75 5.58097 6.98705 5.15901 7.40901C4.73705 7.83097 4.5 8.40326 4.5 9C4.5 9.59674 4.73705 10.169 5.15901 10.591C5.58097 11.0129 6.15326 11.25 6.75 11.25H9.5625M9.5625 11.25H7.03125C6.53062 11.25 6.04123 11.3985 5.62496 11.6766C5.2087 11.9547 4.88427 12.3501 4.69268 12.8126C4.5011 13.2751 4.45097 13.7841 4.54864 14.2751C4.64631 14.7661 4.88739 15.2171 5.24139 15.5711C5.59539 15.9251 6.04641 16.1662 6.53743 16.2639C7.02844 16.3615 7.53739 16.3114 7.99992 16.1198C8.46244 15.9282 8.85777 15.6038 9.13591 15.1875C9.41405 14.7713 9.5625 14.2819 9.5625 13.7812V11.25Z" stroke="black" stroke-width="1.5" stroke-linecap="round" stroke-linejoin="round"/>
</svg>
