<svg width="19" height="18" viewBox="0 0 19 18" fill="none" xmlns="http://www.w3.org/2000/svg">
<g clip-path="url(#clip0_4_139)">
<path d="M2.1875 3.9375V7.3125H5.5625" stroke="black" stroke-width="1.5" stroke-linecap="round" stroke-linejoin="round"/>
<path d="M5.25242 13.5C6.13686 14.3347 7.24767 14.8903 8.44605 15.0973C9.64443 15.3043 10.8772 15.1535 11.9905 14.6639C13.1037 14.1743 14.0479 13.3675 14.7052 12.3443C15.3625 11.3211 15.7037 10.1269 15.6861 8.91086C15.6686 7.69486 15.2931 6.51099 14.6066 5.50716C13.9201 4.50334 12.953 3.72408 11.8261 3.26674C10.6993 2.80941 9.46262 2.69429 8.27071 2.93576C7.07879 3.17723 5.98446 3.76459 5.12445 4.62444L2.1875 7.31249" stroke="black" stroke-width="1.5" stroke-linecap="round" stroke-linejoin="round"/>
</g>
<defs>
<clipPath id="clip0_4_139">
<rect width="18" height="18" fill="white" transform="translate(0.5)"/>
</clipPath>
</defs>
</svg>
